<?xml version="1.0" encoding="utf-8"?>
<!-- Generator: Adobe Illustrator 20.1.0, SVG Export Plug-In . SVG Version: 6.00 Build 0)  -->
<svg version="1.1" id="Layer_1" xmlns="http://www.w3.org/2000/svg" xmlns:xlink="http://www.w3.org/1999/xlink" x="0px" y="0px"
	 viewBox="0 0 257 91.9" style="enable-background:new 0 0 257 91.9;" xml:space="preserve">
<style type="text/css">
	.st0{fill:#1FA7AA;}
	.st1{fill:#FFFFFF;}
</style>
<g>
	<path class="st0" d="M190.7,4.3c3.8,0,7.6,0,11.4,0.1c0.2,0,0.3,0.1,0.5,0.1c8.4,0.1,16.9,0.4,25.3,1c3.8,0.3,7.6,0.6,11.4,1
		c4.1,0.4,8.2,1,12.3,1.5c1,0.1,1.9,0.3,2.9,0.4c0,0.2,0,0.4,0,0.5c-0.2,4.5-0.5,9.1-0.7,13.6c0,0.3-0.2,0.4-0.4,0.5
		c-1.9,0.7-3.5,1.7-4.8,3.3c-1.6,1.9-2.3,4.1-2.7,6.4c-1.1,5.5-2.1,11-3.4,16.5c-1.3,5.8-3,11.5-5.4,16.9c-1.6,3.6-3.4,7-5.9,10
		c-3.1,3.7-7.1,6.3-11.4,8.4c-5.6,2.8-11.7,3.8-17.9,3.9c-6.6,0.1-13.2-0.6-19.7-1.9c-5.9-1.2-11.5-3-16.8-5.9
		c-3.6-1.9-6.8-4.4-9.5-7.5c-3.7-4.4-6.8-9.1-9.6-14.1c-3.6-6.8-6.4-13.9-7.8-21.4c-0.4-2-1-3.8-2.4-5.3c-2.6-2.8-6-3.4-9.6-2.6
		c-3.5,0.8-5.5,3.2-6.5,6.6c-0.5,2-0.9,4-1.5,6c-2.9,10-7.6,19-13.9,27.3c-2.1,2.7-4.3,5.3-7,7.4c-3.7,2.8-7.8,4.8-12.1,6.3
		c-5.8,2-11.7,3.2-17.8,3.9c-5.4,0.6-10.7,0.8-16.1,0.2c-5.5-0.6-10.8-2.1-15.6-4.9c-5.6-3.2-10.1-7.4-13-13.2
		c-2.5-4.9-4.3-10-5.7-15.3c-2.1-7.4-3.4-15-4.7-22.6c-0.3-2.1-1-4.1-2.2-5.9c-1.3-1.9-3.1-3.1-5.2-3.9c-0.2-0.1-0.4-0.2-0.4-0.5
		c-0.1-3.3-0.2-6.5-0.4-9.8c0-1-0.1-2.1-0.2-3.1c0-0.4,0-0.8,0-1.3c0.1,0,0.3,0,0.4,0c4-0.5,7.9-1.1,11.9-1.4
		c5.5-0.5,11-0.9,16.5-1.2C40,3.9,47.2,3.8,54.4,3.6c0.7,0,1.3,0,2-0.1c3.8,0,7.6,0,11.4,0.1c0.6,0,1.1,0.1,1.7,0.2
		c4.4,0.5,8.9,1,13.3,1.6c5.4,0.8,10.8,1.9,16,3.3c3.5,1,6.9,2,10.1,3.8c4,2.2,8.3,3.4,12.9,3.5c5.1,0.2,10.2,0.3,15.4,0.1
		c4-0.1,7.9-1,11.5-2.9c3.5-1.9,7.2-3.1,11-4.1c5.3-1.4,10.7-2.5,16.2-3.2c4.2-0.5,8.5-0.9,12.7-1.4C189.2,4.4,189.9,4.4,190.7,4.3z
		 M193.7,11.7C193.7,11.7,193.7,11.7,193.7,11.7c-2.6-0.1-5.1-0.1-7.7-0.1c-6-0.2-11.9,0.1-17.8,1.4c-3.8,0.8-7.5,2.1-10.8,4.2
		c-4,2.6-6.7,6.1-7.7,10.8c-1.1,5.1-1.3,10.2-0.5,15.3c1.3,9.1,4.8,17.3,10.7,24.4c2.3,2.8,4.9,5.5,8.2,7.3c3.1,1.7,6.5,3,9.9,4
		c6.2,1.9,12.5,2.9,19,3.1c5.2,0.1,10.4-0.4,15.4-1.9c4-1.3,7.7-3.1,10.6-6.2c6.4-6.6,10.5-14.5,12.4-23.5c0.8-3.8,1.3-7.6,1.6-11.4
		c0.3-2.8,0.4-5.5,0.1-8.3c-0.6-4.6-2.5-8.5-6.1-11.6c-3.3-2.8-7.1-4.5-11.2-5.7c-4.5-1.3-9.2-1.7-13.9-1.8
		C201.8,11.7,197.7,11.8,193.7,11.7z M30.6,15.9c-3.4,2-6.2,4.6-7.9,8.2c-1.4,3-1.9,6.1-1.8,9.3c0.1,4.3,0.5,8.7,1.2,13
		c1.2,8.5,4.4,16.1,9.6,23c3.6,4.8,8.1,8.1,13.8,9.9c4.6,1.5,9.4,2,14.2,2.1c2.2-0.1,4.4-0.2,6.6-0.4c6.2-0.6,12.2-1.9,18.1-4.1
		c4.2-1.6,8-3.7,11.2-6.9c5.3-5.4,9.1-11.7,11.5-18.9c2.4-7.3,3.1-14.8,1.8-22.4c-1-5.5-3.9-9.5-8.6-12.4c-2.5-1.5-5.1-2.5-7.9-3.3
		c-5.1-1.4-10.3-2-15.5-2.1c-6.3-0.1-12.5-0.1-18.8-0.1c-5,0-9.9,0.1-14.8,0.8 M10.3,16.5c3.7,0,7.3,0,10.9,0.1c0-0.9,0-1.7,0-2.5
		c-3.7,0-7.3,0-10.9-0.1C10.3,14.9,10.3,15.7,10.3,16.5z M248,15.4c-3.7,0-7.3,0-10.9-0.1c0,0.9,0,1.7,0,2.5c3.7,0,7.3,0,10.9,0.1
		C248,17.1,248,16.3,248,15.4z"/>
	<path class="st1" d="M10.3,16.5c0-0.9,0-1.7,0-2.5c3.6,0,7.3,0,10.9,0.1c0,0.8,0,1.7,0,2.5C17.6,16.6,14,16.6,10.3,16.5z"/>
	<path class="st1" d="M248,15.4c0,0.8,0,1.7,0,2.5c-3.6,0-7.3,0-10.9-0.1c0-0.8,0-1.7,0-2.5C240.7,15.4,244.3,15.4,248,15.4z"/>
</g>
</svg>
